<svg xmlns="http://www.w3.org/2000/svg" width="1600" height="900" viewBox="0 0 1600 900">
  <defs>
    <linearGradient id="bg" x1="0" x2="1" y1="0" y2="1">
      <stop offset="0%" stop-color="#f7d9e3"/>
      <stop offset="100%" stop-color="#f5f1ea"/>
    </linearGradient>
  </defs>
  <rect width="1600" height="900" fill="url(#bg)"/>
  <circle cx="220" cy="170" r="100" fill="#ffffff" opacity="0.35"/>
  <circle cx="1360" cy="760" r="150" fill="#ffffff" opacity="0.25"/>
  <rect x="860" y="220" width="230" height="280" rx="26" fill="#c98b73"/>
  <rect x="890" y="250" width="170" height="30" rx="15" fill="#8a5a48"/>
  <ellipse cx="1180" cy="300" rx="120" ry="55" fill="#d9b38c"/>
  <rect x="1090" y="300" width="180" height="28" rx="14" fill="#b37c56"/>
  <circle cx="450" cy="305" r="92" fill="#2c2c2c" opacity="0.88"/>
  <circle cx="582" cy="305" r="92" fill="#2c2c2c" opacity="0.88"/>
  <rect x="450" y="288" width="132" height="32" rx="16" fill="#2c2c2c"/>
  <rect x="360" y="520" width="120" height="120" rx="30" fill="#f3c03a"/>
  <rect x="520" y="520" width="120" height="120" rx="30" fill="#f3c03a"/>
  <path d="M480 580 C520 500, 600 500, 640 580" fill="none" stroke="#f3c03a" stroke-width="28" stroke-linecap="round"/>
  <circle cx="1020" cy="650" r="46" fill="none" stroke="#c49a6c" stroke-width="18"/>
  <circle cx="1120" cy="650" r="46" fill="none" stroke="#c49a6c" stroke-width="18"/>
  <text x="110" y="690" font-family="Arial, Helvetica, sans-serif" font-size="74" font-weight="700" fill="#2b2d42">8 Fashion Accessories</text>
  <text x="110" y="775" font-family="Arial, Helvetica, sans-serif" font-size="74" font-weight="700" fill="#2b2d42">Under $35 on Amazon</text>
  <text x="115" y="835" font-family="Arial, Helvetica, sans-serif" font-size="28" fill="#5c5c5c">Smart Picks Daily · Affiliate roundup</text>
</svg>
