<svg xmlns="http://www.w3.org/2000/svg" width="1600" height="900" viewBox="0 0 1600 900">
  <defs>
    <linearGradient id="bg" x1="0" x2="1" y1="0" y2="1">
      <stop offset="0%" stop-color="#f7efe4"/>
      <stop offset="100%" stop-color="#f5d6d6"/>
    </linearGradient>
  </defs>
  <rect width="1600" height="900" fill="url(#bg)"/>
  <rect x="980" y="200" width="180" height="270" rx="24" fill="#d49a6a"/>
  <rect x="1020" y="170" width="100" height="50" rx="18" fill="#fff3e6"/>
  <rect x="390" y="270" width="190" height="120" rx="22" fill="#fffaf4" stroke="#d8c8b0"/>
  <rect x="430" y="305" width="110" height="12" rx="6" fill="#c7b39a"/>
  <rect x="430" y="335" width="80" height="12" rx="6" fill="#c7b39a"/>
  <rect x="710" y="245" width="170" height="210" rx="24" fill="#8dc3a7"/>
  <rect x="785" y="210" width="20" height="280" fill="#ffffff" opacity="0.9"/>
  <rect x="680" y="310" width="230" height="20" fill="#ffffff" opacity="0.9"/>
  <rect x="1120" y="540" width="220" height="120" rx="30" fill="#d66f6f"/>
  <rect x="1218" y="500" width="24" height="200" fill="#fff" opacity="0.92"/>
  <rect x="1080" y="588" width="300" height="24" fill="#fff" opacity="0.92"/>
  <path d="M1180 500 C1180 455, 1238 452, 1230 500" fill="#fff" opacity="0.95"/>
  <path d="M1280 500 C1280 455, 1222 452, 1230 500" fill="#fff" opacity="0.95"/>
  <text x="110" y="700" font-family="Arial, Helvetica, sans-serif" font-size="78" font-weight="700" fill="#2b2d42">10 Cozy Gift Ideas</text>
  <text x="110" y="785" font-family="Arial, Helvetica, sans-serif" font-size="78" font-weight="700" fill="#2b2d42">Under $25 from Amazon</text>
  <text x="115" y="842" font-family="Arial, Helvetica, sans-serif" font-size="28" fill="#5c5c5c">Smart Picks Daily · Affordable gifting picks</text>
</svg>
